<?xml version="1.0" encoding="UTF-8" standalone="no"?>
<svg
   version="1.1"
   width="1300"
   height="1300"
   id="svg32"
   viewBox="0 0 1300 1300"
   sodipodi:docname="icon.svg"
   inkscape:version="1.3 (0e150ed6c4, 2023-07-21)"
   inkscape:export-filename="icon.png"
   inkscape:export-xdpi="96"
   inkscape:export-ydpi="96"
   xmlns:inkscape="http://www.inkscape.org/namespaces/inkscape"
   xmlns:sodipodi="http://sodipodi.sourceforge.net/DTD/sodipodi-0.dtd"
   xmlns="http://www.w3.org/2000/svg"
   xmlns:svg="http://www.w3.org/2000/svg">
  <defs
     id="defs36" />
  <sodipodi:namedview
     id="namedview34"
     pagecolor="#505050"
     bordercolor="#eeeeee"
     borderopacity="1"
     inkscape:pageshadow="0"
     inkscape:pageopacity="0"
     inkscape:pagecheckerboard="0"
     showgrid="false"
     showguides="false"
     inkscape:zoom="0.47566205"
     inkscape:cx="813.60285"
     inkscape:cy="747.37936"
     inkscape:window-width="1920"
     inkscape:window-height="1017"
     inkscape:window-x="-8"
     inkscape:window-y="-8"
     inkscape:window-maximized="1"
     inkscape:current-layer="svg32"
     inkscape:showpageshadow="0"
     inkscape:deskcolor="#d1d1d1">
    <sodipodi:guide
       position="1334.9434,2125.9475"
       orientation="1,0"
       id="guide1209"
       inkscape:locked="false" />
  </sodipodi:namedview>
  <g
     id="g1">
    <ellipse
       style="fill:#ffffff;stroke:#000000;stroke-width:1.03269;stroke-linecap:round;stroke-linejoin:round"
       id="path1"
       cx="650"
       cy="650"
       rx="624.34546"
       ry="622.11566" />
    <path
       id="path1127-4-0"
       style="fill:#00044d;fill-opacity:1;fill-rule:evenodd;stroke:none;stroke-width:12.3474;stroke-miterlimit:4;stroke-dasharray:none;stroke-opacity:1"
       d="M 650.00052,21.30037 A 628.70003,628.70003 0 0 0 21.30038,649.99946 628.70003,628.70003 0 0 0 650.00052,1278.6996 628.70003,628.70003 0 0 0 1278.6996,649.99946 628.70003,628.70003 0 0 0 650.00052,21.30037 Z m 0,15.84831 a 612.85048,612.85048 0 0 1 5.36262,0.38312 c -0.0547,5.82811 -3.62824,13.36931 -1.69358,16.76039 1.69369,2.96849 14.56561,7.26136 17.37428,2.47612 1.4772,-2.98788 -1.79656,-9.74374 -3.05303,-12.91613 -0.74055,-1.86998 -1.6067,-3.67759 -2.44672,-5.59115 a 612.85048,612.85048 0 0 1 10.72846,0.76732 c 3.22505,5.23572 5.86136,12.09644 6.18212,15.24751 1.48584,14.59281 2.02237,9.71603 11.77116,15.27798 2.83453,1.61707 5.43679,3.14692 8.34047,4.79988 6.40453,3.64584 11.83118,10.86159 17.11304,8.86507 2.04595,-5.22848 -3.84891,-10.35749 -6.45752,-14.50738 -5.46337,-8.69171 -12.76566,-17.20817 -19.73615,-24.11803 -0.97047,-0.96204 -3.03653,-2.82258 -4.96093,-4.68886 a 612.85048,612.85048 0 0 1 10.40407,0.74448 c 0.97449,0.68375 1.92552,1.32013 3.11071,2.28239 17.93183,14.55943 14.06859,22.68358 23.39531,34.1945 1.19249,1.47174 2.10886,2.54466 3.29566,4.21322 1.02442,1.44031 1.95723,2.49583 2.99095,3.90739 3.83934,5.24352 8.08979,10.85843 11.67641,16.4872 2.05151,3.21948 3.84089,5.72756 5.75877,8.6191 11.53744,17.39524 21.05118,35.66773 32.12547,53.65958 1.75845,2.85682 3.42891,6.16494 5.06437,9.3516 l 14.82406,28.37914 c 1.7554,3.43386 2.9909,5.89361 4.9174,9.43976 2.1324,3.9251 3.0112,6.52461 4.6062,9.75975 l 4.7792,9.62915 c 1.6176,3.20366 3.1403,6.22689 4.5909,9.1916 l 13.8685,29.35109 c 1.5686,3.3457 3.0436,6.22838 4.5539,9.86097 2.6189,6.29982 5.7309,12.77304 8.951,19.85364 3.0469,6.6991 5.7331,12.91077 8.6398,19.48794 5.9,13.34989 11.9666,26.99473 17.2742,40.37448 2.8299,7.13388 5.3094,13.30861 8.3665,20.41418 8.7718,20.38803 15.5376,41.13901 24.1137,61.64741 4.3453,10.39109 7.4646,21.01379 11.7864,31.50613 0.793,1.92541 0.9524,3.0665 1.6718,5.14164 l 9.5333,26.15335 c 13.0251,35.58486 24.5577,71.97492 35.1469,108.28785 4.1921,14.37543 8.4454,29.26908 12.5733,44.25031 6.266,22.74057 11.3222,46.74107 16.8039,69.67441 1.7114,7.15978 3.3728,15.96546 4.6834,23.41274 2.87448,16.33133 5.76158,32.47153 8.40798,49.17313 1.3245,8.35928 1.6331,18.08588 2.8995,26.05648 1.0201,6.4197 0.64,13.9003 1.6261,19.5881 0.365,2.1056 0.7585,3.5862 0.7869,5.91 0.2004,16.4809 3.2839,41.6378 0.8446,55.9235 -0.7419,4.345 0.1331,9.3942 -0.4898,13.8946 -1.2133,8.7647 -1.157,17.5641 -2.2943,26.3765 -1.026,7.9494 -1.8199,17.0933 -3.4873,24.77 -5.7241,26.3537 -12.47618,52.61647 -22.51798,77.51307 -2.9858,7.4027 -14.0177,31.4761 -18.7337,38.9519 -1.9885,3.152 -3.3872,6.323 -5.2287,9.1481 -11.913,18.2737 -22.3762,32.8629 -36.1222,49.6467 l -6.6294,7.7722 c -2.531,2.7088 -4.8888,4.1898 -7.0703,7.3414 -1.8031,2.6051 -17.9895,17.4682 -21.8074,20.7407 -21.4206,18.3599 -42.5043,32.7578 -67.4312,47.1248 -2.9214,1.6837 -6.6839,3.4259 -9.5682,4.839 -9.6233,4.7148 -19.22498,8.742 -28.8972,12.8508 a 612.85048,612.85048 0 0 1 -13.73457,2.9877 c 11.2826,-4.8147 23.80278,-10.3861 32.37467,-15.4913 3.0889,-1.8395 5.1474,-2.6239 8.2087,-4.2165 10.8736,-5.6564 21.1673,-12.0999 31.8294,-18.2972 14.5819,-8.4756 30.0675,-21.7612 41.2997,-33.8386 10.0333,-10.7883 19.7859,-22.1827 28.6872,-33.9181 8.5764,-11.3071 27.7246,-41.0222 33.2878,-54.2919 2.596,-6.1922 5.2067,-10.3457 7.8877,-16.6341 13.3995,-31.4286 21.7579,-63.5434 27.7217,-97.35367 1.2803,-7.2586 1.6057,-15.0839 2.8212,-22.3451 0.9247,-5.5236 0.6492,-12.1067 1.0884,-17.6746 0.1532,-1.942 0.7747,-3.319 0.973,-5.1373 0.4309,-3.9462 -0.2245,-8.1971 0.2928,-12.2772 1.6908,-13.3381 -0.096,-47.7128 -1.2212,-60.3163 -0.5434,-6.0873 -0.067,-11.9446 -0.9262,-17.8738 -1.367,-9.4375 -2.312,-19.1873 -3.0007,-28.4053 -1.0141,-13.57788 -4.1758,-29.96818 -6.3944,-43.59838 -3.9149,-24.04917 -15.2079,-79.42177 -21.8771,-102.62917 -1.7837,-6.20687 -3.8988,-14.03382 -5.1547,-19.86889 -2.8926,-13.43933 -7.2059,-25.95528 -10.9275,-39.13587 -6.0276,-21.34782 -11.8785,-41.71065 -18.6151,-62.84792 l -17.149,-51.65256 c -8.3664,-24.78436 -17.3129,-48.83661 -26.0042,-73.48493 -1.9892,-5.64159 -4.4499,-12.8673 -6.8167,-18.35056 -2.8631,-6.6334 -11.023,-28.75326 -13.7738,-36.25377 -6.0416,-16.47397 -13.6294,-32.80698 -19.4607,-49.3865 -2.5982,-7.38721 -13.1016,-31.91066 -16.448,-39.3862 -2.6259,-5.86599 -4.8317,-11.66231 -7.4023,-17.57779 L 770.7343,171.45274 c -2.73344,-5.59132 -5.61556,-10.86841 -8.36115,-16.74515 -1.45864,-3.12202 -2.64071,-5.54167 -4.16098,-8.31 -1.76653,-3.21648 -2.01407,-5.68452 -6.99189,-5.30163 -2.13014,3.8692 -1.3498,5.77626 -0.94696,10.82748 0.69547,8.72264 0.48326,26.79002 -0.55286,34.79095 -0.81116,6.26393 -2.38208,13.0764 -3.38499,19.54998 -2.65476,17.13694 -4.68019,13.44967 1.02419,29.22483 5.15286,14.24903 9.66738,28.66705 15.14306,43.07373 2.01262,5.29547 3.859,12.28936 5.90461,17.24691 4.51368,10.93905 18.94494,55.0053 23.79258,69.54707 7.79241,23.3752 15.83771,46.8094 23.06221,70.09454 l 19.8309,62.17965 c 0.8581,2.79518 1.8013,6.18101 2.487,8.97174 1.3425,5.46387 3.9696,12.39443 5.615,18.07518 l 15.5055,53.97523 c 9.5256,35.19628 21.081,75.50364 28.5783,111.79144 5.42,26.23288 11.515,51.0355 15.6763,77.58606 1.0573,6.7452 2.6183,13.5884 3.3991,19.4727 1.1404,8.5952 5.0085,33.67848 5.6511,41.24188 0.5917,6.9657 1.0485,15.2551 2.0756,21.3633 1.8576,11.0474 4.666,66.4889 3.9596,78.0704 -0.216,3.5411 -0.9647,6.2054 -0.948,10.649 0.029,7.8391 -0.6375,15.4358 -0.6041,22.5594 0.021,4.5081 -1.022,6.2674 -1.1145,10.6174 -0.294,13.832 -4.199,37.97987 -7.091,50.97987 -6.1653,27.7128 -12.9899,54.8948 -24.6938,80.527 l -7.423,15.7884 c -8.6742,16.1359 -10.2514,20.1464 -21.1477,37.0483 -4.2766,6.6338 -9.718,13.9192 -15.0211,20.0115 -1.9391,2.2278 -2.9758,4.0657 -4.9131,6.3617 -6.9553,8.2436 -15.4339,16.2153 -23.1384,23.8177 -14.5269,14.3343 -35.74158,29.4716 -54.34207,38.9007 -7.72653,3.9168 -15.83028,7.1094 -23.74681,11.3641 -0.0374,0.02 -0.0396,0.033 -0.0762,0.053 a 612.85048,612.85048 0 0 1 -6.44337,0.4604 c 3.98171,-2.0532 7.84568,-4.157 11.59588,-6.0385 10.15854,-5.0962 17.99251,-10.0806 26.76286,-15.2246 21.55812,-12.644 27.6756,-17.3164 45.78281,-37.5142 8.272,-9.227 15.6683,-19.6485 22.3406,-30.225 1.4625,-2.3182 2.5138,-3.4974 3.9792,-6.0168 13.4294,-23.0878 24.2332,-46.0563 32.5402,-71.4703 18.0282,-55.1556 21.4701,-105.25947 21.4612,-167.02477 -0.01,-23.369 -1.5716,-36.3765 -3.2837,-58.8742 -1.9077,-25.0662 -5.8195,-49.7156 -9.2058,-73.87668 -0.9206,-6.5681 -1.6894,-12.1704 -2.8723,-18.4779 -1.1301,-6.0267 -1.9531,-11.2526 -3.2184,-17.55276 -2.2338,-11.12295 -4.1133,-23.8326 -6.931,-34.8922 -1.3841,-5.43271 -2.5792,-12.10886 -3.706,-17.65832 -2.969,-14.62303 -16.7873,-73.91079 -19.9593,-83.98263 l -8.5603,-32.58365 c -2.0927,-9.29161 -10.2094,-38.3338 -13.5213,-49.16229 -6.6838,-21.85269 -12.6658,-43.12765 -18.8566,-65.12379 -1.484,-5.27239 -2.98247,-10.75383 -4.78249,-15.84394 -4.07628,-11.5273 -10.68995,-35.13426 -14.48019,-48.19904 -7.71577,-26.5967 -16.73142,-52.6026 -24.54467,-79.18602 l -14.88398,-47.71905 c -1.6621,-5.15376 -2.75495,-12.47895 -7.21176,-13.37871 -5.21934,0.38496 -4.84074,10.9596 -5.62815,14.24073 -0.76613,3.19117 -0.73548,5.95394 -1.35616,8.75514 -2.41051,10.87792 -5.07206,22.01772 -6.23657,33.16814 -0.33124,3.17178 -1.15666,5.04185 -1.55316,7.69504 -0.52873,3.53824 0.12806,5.82935 -0.81087,9.27977 -1.07196,3.93935 -0.55214,5.21868 -1.2451,8.89011 -1.16251,6.15923 -0.82397,11.8261 -0.82397,18.57803 -0.006,18.67316 -2.25012,35.52659 3.73546,53.9589 1.64582,5.06826 11.16379,40.08195 12.33271,46.36834 1.1746,6.31732 6.28158,25.17195 8.3361,31.23621 l 16.06929,62.1644 c 2.65391,10.78491 5.06765,20.87791 7.98777,31.54859 4.91196,17.94972 8.74449,37.27106 13.42986,55.29328 0.62113,2.38872 1.49068,4.76031 2.01356,7.50022 1.14652,6.00804 2.46701,10.31469 3.76371,16.36965 0.66694,3.11333 1.03546,4.95395 1.84377,8.04877 3.46117,13.25042 5.68995,26.50899 8.77909,40.12742 4.89835,21.59396 8.59395,43.73006 12.62445,65.49386 4.0916,22.09338 7.8934,45.00918 10.7241,68.11138 1.2784,10.433 7.0116,60.9558 6.9615,71.5563 -0.035,7.4612 1.2404,11.4222 1.0644,18.8186 -0.1423,5.9838 0.6539,11.0675 0.6422,17.4951 l 0.021,30.0705 c -0.01,3.6529 -0.8368,5.563 -0.9785,8.25767 -0.1242,2.3641 0.5425,5.8723 0.2645,9.1971 -0.2623,3.1378 -1.049,4.6987 -1.0351,8.7976 0.04,11.6816 -1.87,24.1568 -3.3207,35.6693 -2.7276,21.6432 -6.9345,44.4773 -13.7575,65.1716 l -10.22448,29.2074 c -12.68596,33.1932 -36.23402,70.3162 -64.6351,92.4679 -3.77425,2.9438 -7.008,5.2283 -11.25519,8.1272 -5.2652,3.5938 -10.8948,6.5214 -16.1901,9.7923 a 612.85048,612.85048 0 0 1 -57.32426,4.1001 612.85048,612.85048 0 0 1 -56.13133,-4.0141 c -1.53905,-0.8612 -3.17919,-1.7974 -4.27962,-2.3531 -25.07925,-12.6654 -45.86294,-34.3299 -61.51679,-57.4092 -2.44149,-3.5995 -5.61321,-8.1672 -7.5895,-11.7744 -4.58333,-8.3652 -9.87462,-16.8969 -13.56154,-25.9106 -1.89063,-4.6227 -4.59576,-9.4119 -6.16039,-13.8249 -1.88389,-5.3135 -3.32988,-9.1978 -5.11441,-14.2952 -13.67756,-39.0702 -15.0189,-59.2072 -20.46426,-97.7847 -3.30603,-23.4215 -2.48139,-53.25477 -2.46523,-76.62167 0.006,-6.9824 0.63862,-12.3813 0.60407,-19.4085 l 1.60649,-28.1527 c 0.14851,-3.3265 0.94919,-4.9497 1.06877,-8.7803 0.0987,-3.1667 0.43255,-5.935 0.64326,-9.3777 0.18373,-3.0019 0.93453,-4.2855 1.071,-8.1511 0.64531,-18.276 10.97188,-84.2137 15.23662,-103.13088 0.66722,-2.9603 0.70071,-5.7379 1.26912,-8.8705 l 4.88147,-25.09766 c 2.40883,-10.5167 3.96115,-22.13075 7.00827,-32.47698 0.75537,-2.56487 0.87257,-5.67777 1.50094,-8.46237 l 16.77779,-72.06238 c 2.81318,-11.37901 10.13648,-38.30704 11.90825,-47.06601 4.29963,-21.25748 11.34301,-41.81531 16.11498,-62.73473 5.57554,-24.44191 31.23546,-113.33679 32.79915,-124.81532 0.66331,-4.8691 0.45506,-33.19661 0.14801,-39.26104 -0.32762,-6.4995 0.11201,-13.49373 0,-20.05936 -0.10076,-5.90249 -6.44265,-48.13396 -7.31193,-51.35216 -1.45028,-5.36813 -2.69582,-10.68314 -3.43063,-16.74189 -0.45986,-3.79101 -1.97768,-11.497 -4.71825,-14.49976 l -3.10742,0.0838 c -4.80373,6.39255 -12.37155,36.67498 -16.07252,47.80395 l -25.03445,80.16558 c -9.81705,32.27632 -19.12337,64.72595 -29.399,97.1012 -4.11718,12.97139 -8.40422,27.57549 -11.68405,40.84358 -0.78396,3.17112 -1.69944,5.11233 -2.47721,8.03245 -7.53556,28.29294 -15.55622,54.87314 -22.76622,83.16196 -2.92469,11.47469 -5.2501,21.92724 -8.40795,33.60132 -1.99763,7.38549 -10.82136,45.03279 -12.01602,51.78535 -0.93219,5.2686 -2.35863,11.25745 -3.68425,17.05317 -6.01929,26.31441 -10.40296,52.9441 -14.90683,79.6388 -0.29652,1.757 -0.25428,3.30568 -0.52137,5.12528 -1.62755,11.0847 -6.44778,42.2811 -6.55327,51.5655 -0.0423,3.7209 -0.79488,5.4578 -1.0797,8.8063 l -2.23669,30.0008 c 0.0217,3.8397 -0.049,6.7509 -0.43974,10.0776 -0.7371,6.2736 0.0284,14.6745 -0.14366,21.2392 -0.0975,3.7134 -1.09263,5.3699 -1.12105,9.3484 -0.0737,10.3587 1.13414,13.9816 1.11129,19.4172 -0.0746,17.8814 0.89291,33.1889 2.67855,50.80567 1.1775,11.6165 2.77869,24.9553 5.62052,36.2691 1.32389,5.2705 2.43881,11.9672 3.47315,17.0466 2.40644,11.8169 5.81227,21.9477 9.07077,32.9896 6.14022,20.8081 15.68616,40.0043 25.32723,59.2116 10.4135,20.7461 36.06172,56.476 55.95395,71.1677 8.59597,6.3487 16.65982,10.7551 25.66795,16.2641 11.95371,7.3107 25.07629,14.2458 37.95708,20.5273 a 612.85048,612.85048 0 0 1 -8.15758,-0.5834 c -11.54624,-6.6274 -33.67032,-13.7297 -57.09572,-32.7512 -6.94809,-5.642 -13.50186,-9.9838 -19.59783,-16.0802 -12.59313,-12.5939 -16.94135,-16.4224 -28.59142,-30.2403 -14.43561,-17.1216 -27.05687,-37.4134 -36.85782,-57.6518 -15.97087,-32.9789 -28.11178,-69.8344 -34.33275,-107.1581 -2.79981,-16.79767 -6.53894,-47.25387 -6.43245,-64.18447 0.0301,-4.7647 -0.74367,-6.912 -0.96652,-11.252 -0.40312,-7.8489 -0.65317,-29.5795 0.24598,-35.6725 1.74663,-11.8367 1.34897,-39.8655 3.42194,-49.7152 0.46693,-2.2188 0.65673,-2.1889 0.70967,-4.7542 0.32506,-15.7527 4.43377,-36.7228 6.50975,-52.67678 3.13478,-24.0923 9.36556,-55.81816 14.48236,-79.4472 11.14112,-51.45014 24.20106,-101.03663 38.19548,-150.71833 13.68843,-48.59611 29.57772,-96.52698 44.48868,-144.00722 3.6469,-11.61345 8.32531,-23.89819 11.73956,-35.74983 l 11.88432,-35.09899 c 4.29773,-11.3371 8.00115,-23.39572 12.03558,-34.94659 4.19202,-12.00215 8.37123,-22.76548 12.08133,-34.85517 3.7695,-12.28284 8.44507,-23.26487 12.55149,-35.08156 1.97885,-5.69463 3.62133,-11.96044 5.94167,-17.82158 4.90354,-12.38633 4.23494,-15.90391 1.05791,-28.64253 -2.92201,-11.71612 -3.02076,-30.26563 -3.04862,-42.7483 l 0.94144,-11.18339 c 0.33096,-4.94478 2.60928,-9.53014 3.18142,-14.44426 0.0935,-0.80453 0.15403,-2.34133 0.0153,-3.12373 -0.57771,-3.26056 -3.80684,-3.18385 -5.5498,-0.83698 -0.42714,0.57515 -1.8222,3.15837 -2.24756,3.95091 -1.62281,3.02311 -2.53221,5.40551 -4.19798,8.37857 l -8.71707,16.93018 c -0.89218,1.6188 -1.45235,3.33255 -2.16052,4.69974 l -22.48758,46.99853 c -9.0852,18.21303 -22.08384,50.6869 -30.95104,71.08173 -7.80076,17.94214 -14.60647,35.80034 -22.17083,54.2876 -5.05657,12.35834 -9.1173,24.25825 -14.31151,36.34193 -2.69504,6.26961 -4.57899,12.44603 -7.22159,18.49748 l -20.68734,55.6677 c -7.77356,24.78753 -18.13797,50.39223 -25.95962,76.08949 -3.8458,12.63498 -8.62841,25.79167 -12.44595,38.19332 -4.16556,13.5324 -7.68613,26.32129 -11.9311,39.50266 -6.23439,19.35843 -10.49931,39.87373 -16.66243,59.65345 -1.97601,6.34167 -3.18037,13.83236 -4.8739,20.19649 -3.49862,13.1466 -7.12535,28.07425 -9.53446,41.20603 -2.5598,13.95364 -6.33761,28.36573 -8.59843,42.82665 -1.10812,7.0874 -2.15165,15.2128 -3.6157,21.8291 -0.67813,3.0647 -1.01099,7.9849 -1.49765,11.2466 -1.26989,8.51168 -5.49011,39.20598 -5.71302,45.61068 -0.56913,16.3516 -5.17275,71.0103 -2.21925,83.8347 0.95816,4.1612 0.28075,8.043 0.54963,12.6059 0.11976,2.0322 0.66431,3.3411 0.88488,5.2842 0.26732,2.355 -0.23048,2.4903 -0.0272,5.0186 l 2.61875,23.2768 c 0.87134,6.5435 2.23324,14.1456 3.55145,21.2305 11.01963,59.22537 34.57025,111.82287 70.31438,158.90197 4.81326,6.3393 9.43366,11.6278 14.69246,17.2578 1.195,1.2795 1.65914,2.3196 2.75038,3.509 6.2189,6.7793 11.74162,12.3892 18.77831,18.7859 l 6.94296,6.204 c 11.87153,11.2431 31.85153,21.4392 46.48697,29.9094 l 16.65263,9.0273 c 10.99606,5.5055 22.3836,11.207 33.94311,16.2238 a 612.85048,612.85048 0 0 1 -16.12585,-3.5069 c -11.90925,-5.3454 -35.13047,-15.8156 -42.22478,-20.2487 -5.8597,-3.6615 -12.29081,-6.8939 -17.74108,-10.4367 -33.72193,-21.9202 -64.18799,-48.4133 -88.87281,-79.5627 -8.08875,-10.207 -16.27168,-21.2641 -23.53791,-32.7578 -5.42559,-8.5823 -10.61244,-18.089 -15.56641,-27.0371 -2.4445,-4.4156 -4.49206,-10.0401 -6.7677,-14.4813 -2.59268,-5.0597 -3.89188,-9.2972 -6.31821,-14.3844 -1.35522,-2.8415 -2.82372,-6.829 -3.91936,-9.788 -9.40953,-25.4112 -15.59455,-51.53137 -20.00714,-78.24557 -1.21272,-7.3421 -1.62861,-19.1356 -3.01597,-25.2576 -1.57968,-6.9702 -0.48276,-18.2932 -1.78169,-26.3047 -1.97963,-12.2108 -0.0912,-28.3809 0.70199,-40.862 0.28465,-4.4776 -0.30795,-9.0465 0.32109,-13.4647 0.74941,-5.2626 1.69732,-19.3956 2.05492,-25.3425 0.24631,-4.0947 1.38168,-8.651 1.59667,-13.1284 0.57644,-12.0077 4.89385,-35.24878 7.18894,-48.92828 0.61968,-3.6931 1.47307,-8.1318 2.11917,-11.8386 l 4.83795,-23.14933 c 2.78192,-15.97959 6.66327,-31.0159 10.5445,-45.81436 2.045,-7.79764 3.32403,-15.06932 5.58023,-22.68133 6.40565,-21.61112 11.68629,-43.74618 18.69344,-65.11834 6.45318,-19.68293 13.40868,-44.76176 20.57739,-63.94722 1.48996,-3.98717 2.25837,-7.06537 3.62445,-10.76979 3.7149,-10.07261 7.76181,-20.78563 10.93956,-30.90533 3.78611,-12.05765 10.52756,-29.50723 15.03633,-40.73801 2.72726,-6.79345 4.87239,-13.68237 7.75713,-20.49037 2.73662,-6.45741 5.26688,-13.84523 7.85827,-20.28465 8.09979,-20.12678 15.63189,-40.16206 24.44676,-60.05725 3.05125,-6.88679 5.56016,-12.67262 8.26423,-19.97881 2.29822,-6.20971 5.78848,-12.75482 8.3938,-19.02209 2.67276,-6.43028 5.93805,-13.44817 8.65834,-19.55434 1.64705,-3.697 3.04957,-6.0133 4.61593,-9.80002 l 8.73334,-19.45638 c 1.36876,-2.88429 3.19653,-6.04111 4.52343,-9.23296 2.82266,-6.78994 5.94903,-12.58311 9.13173,-19.11353 3.1651,-6.49408 6.19233,-12.09528 9.20468,-18.85775 2.72887,-6.12623 6.63741,-12.44593 9.58345,-18.62265 7.51248,-15.7508 16.5701,-30.54907 24.41733,-45.72618 3.8142,-7.37696 8.7865,-14.69388 13.14142,-21.92488 7.80092,-12.95312 15.42124,-25.46956 24.97354,-38.25427 3.7218,-4.98111 7.86662,-10.11143 12.14118,-16.00394 8.2459,-11.36748 2.18626,-16.13447 22.97084,-33.4065 0.30209,-0.25106 1.25201,-0.89716 1.76319,-1.2865 a 612.85048,612.85048 0 0 1 10.05038,-0.71943 c -3.58327,3.51744 -7.41057,7.21423 -8.46892,8.49502 -9.21081,11.14596 -16.81998,21.6074 -24.74713,34.09437 -1.25785,1.98134 -5.20797,7.18302 -5.27334,9.45282 -0.18707,6.4884 5.97901,1.80011 8.19575,-0.2732 6.85408,-6.41116 8.02634,-7.72554 15.85808,-13.54087 5.69413,-4.22792 12.81966,-6.38881 18.05666,-10.79048 4.27773,-3.59535 0.053,-15.77503 9.2482,-28.35846 a 612.85048,612.85048 0 0 1 10.56301,-0.75536 c -1.24889,2.97581 -2.65843,6.15086 -3.33595,8.11844 -1.89131,5.49296 -5.22865,8.97021 -1.20921,14.07202 3.87282,0.42743 7.31298,-0.70477 10.70338,-1.47914 11.62337,-2.65472 3.95864,-12.88674 3.99553,-21.43728 a 612.85048,612.85048 0 0 1 3.95636,-0.28299 z m -64.10282,4.58546 c -0.47206,0.29619 -0.93008,0.56146 -1.38993,0.86855 -11.11827,7.42465 -21.84707,15.58529 -31.31784,25.05623 -19.04803,19.04847 -28.21732,28.45895 -44.54852,49.35276 -22.81375,29.18763 -41.01981,57.33965 -60.69069,89.57268 L 434.09093,230.316 c -11.40459,20.73716 -22.27003,40.48489 -32.87862,61.02048 -15.03367,29.10154 -35.54173,71.10135 -48.43088,101.22954 -11.34295,26.51421 -23.15852,52.74667 -33.585,79.12397 -5.19103,13.13239 -11.40103,27.1614 -15.7449,40.60195 -5.93727,18.3704 -14.4355,36.36617 -20.24003,54.90364 -1.49514,4.77448 -3.02845,9.10537 -4.70732,14.08726 -6.20331,18.40651 -11.85074,37.91702 -18.257,56.14442 -2.74302,7.80489 -6.45775,20.71708 -8.56354,29.05286 l -8.08691,29.4349 c -4.50816,15.24044 -6.85185,30.02511 -11.00381,45.42797 l -9.29712,46.82436 c -1.11626,5.8222 -1.2164,11.3822 -2.27805,16.67978 -3.17607,15.8502 -4.90437,42.7497 -5.62597,59.4848 -1.09313,25.3538 0.16211,55.8972 4.2872,80.9645 6.90674,41.9725 21.48339,81.18497 42.35323,117.82667 2.57373,4.5186 5.17766,8.4146 7.63955,12.3904 7.68289,12.4076 15.82464,23.8703 25.00942,35.1273 5.80302,7.112 12.20761,14.8224 18.37664,21.0726 19.98948,20.252 20.81941,21.653 42.79074,37.364 15.42414,11.0294 32.37424,22.1027 48.81835,31.3461 l 19.13747,10.883 c 6.65597,3.6043 12.74626,7.3027 19.45094,10.5847 l 27.03174,13.0979 c 2.01066,0.9712 3.9101,1.7262 5.90895,2.6089 a 612.85048,612.85048 0 0 1 -63.72194,-23.7675 c -3.3102,-1.7104 -6.72,-3.2546 -10.02748,-4.9882 -26.56386,-13.9234 -50.12635,-31.1649 -73.55571,-49.1557 -25.92468,-19.9071 -48.41237,-43.9331 -69.33153,-69.0236 -2.67766,-3.2115 -4.39281,-5.4026 -6.63713,-8.3709 -2.4343,-3.2195 -4.31173,-5.6251 -6.75466,-8.9228 -14.91469,-20.1343 -28.83026,-44.7167 -38.53943,-67.8666 -18.9913,-45.28177 -24.04664,-81.45427 -24.15608,-129.27667 -0.0524,-22.8722 3.18465,-47.1882 6.89615,-69.7212 2.92034,-17.73058 7.02376,-34.11328 10.00569,-51.1127 3.35356,-19.11975 10.8943,-42.05408 15.71447,-60.82238 3.9952,-15.55638 9.36951,-31.33634 13.99253,-46.53378 3.61391,-11.88055 8.01786,-23.26697 11.47508,-35.01952 1.70144,-5.78424 5.92105,-16.69513 8.0172,-22.55833 1.36909,-3.82986 2.36247,-7.61727 3.89216,-11.18666 1.59768,-3.72827 2.8051,-7.71865 4.12398,-11.53603 1.24777,-3.61124 2.71065,-6.6167 4.14683,-10.9102 4.18182,-12.50196 29.39582,-75.74139 34.93136,-87.65164 1.75326,-3.77218 3.25275,-7.20053 4.81944,-10.86231 1.68278,-3.93334 2.807,-7.13966 4.36344,-10.66531 7.29293,-16.51933 21.31488,-48.93962 28.87111,-63.17444 3.50954,-6.61128 7.03156,-13.86557 9.96545,-20.7124 l 7.54158,-15.62301 c 0.88159,-1.5994 1.48043,-3.10432 2.52078,-5.01429 6.04978,-11.10789 26.64172,-52.12092 31.70642,-59.70134 1.13904,-1.70489 1.83033,-3.56598 2.8124,-5.30598 10.09741,-17.89015 20.04994,-35.47474 31.14809,-52.76382 15.85585,-24.70065 31.63843,-48.85276 49.37884,-72.68931 8.65125,-11.62399 31.36469,-39.42167 41.89716,-50.12662 5.2174,-5.30287 10.12472,-10.04595 15.34546,-15.34219 6.89437,-6.99406 8.31857,-8.20786 14.21682,-16.45454 4.52076,-6.32084 9.0998,-10.57157 15.21595,-15.44886 6.71766,-5.35707 13.46602,-8.95117 20.60135,-12.92376 a 612.85048,612.85048 0 0 1 8.82591,-0.63127 z m 129.35289,0.0816 a 612.85048,612.85048 0 0 1 9.23187,0.66066 c 3.95006,2.37677 12.02731,6.60902 20.97035,13.39177 14.7498,11.18692 14.32505,16.92641 21.91399,24.4108 7.67265,7.56699 15.79506,14.6689 23.16238,22.54311 4.56472,4.87891 9.63434,11.18141 14.37904,16.30434 9.762,10.54055 17.6486,22.65379 27.1024,33.61547 4.7197,5.47251 9.0046,11.68811 13.0065,17.66377 4.3225,6.45424 8.0864,11.60644 12.4927,18.18729 12.2688,18.32376 24.7031,36.77795 35.5049,55.90824 0.9402,1.6651 2.2183,3.43561 3.1901,4.99361 13.2185,21.19384 45.6735,82.16529 58.5912,109.1564 0.9492,1.98342 1.2584,3.19446 2.2672,5.18736 7.0556,13.93992 13.3012,27.1917 19.9102,41.48247 l 9.5736,21.04437 c 4.9061,12.60399 14.83468,34.77868 20.64168,48.24693 0.9907,2.2976 1.2884,2.65594 2.2084,5.24939 1.2754,3.59514 3.2727,7.12565 4.5223,10.7034 5.1619,14.77933 12.3469,29.02304 17.4178,43.8095 1.1226,3.27365 2.8459,7.20768 4.1904,10.89823 9.5905,26.32708 19.4689,52.4228 28.0145,78.93785 4.9855,15.46883 10.2915,30.11255 14.7229,45.97542 2.3112,8.27338 4.1888,15.78721 6.8547,24.00375 2.5014,7.70895 4.4492,15.9527 6.5664,24.01571 12.4979,47.59467 25.0933,105.74515 25.349,155.52805 0.043,8.5457 0.6518,21.0296 -0.049,29.3391 -0.1991,2.3628 -0.9592,4.1991 -1.0546,6.9494 -0.097,2.7851 0.02,4.3687 -0.3505,7.1846 -1.7123,13.0151 -3.4168,25.9544 -6.5707,38.682 -3.623,14.6206 -8.3993,32.6901 -14.8513,46.44787 -3.1491,6.7149 -6.155,14.2478 -9.6705,20.9605 -17.6972,33.7924 -37.9001,63.5938 -62.7206,89.3931 -2.7194,2.8264 -4.642,5.5536 -7.3587,8.2904 -20.25158,20.4004 -42.16378,40.0732 -65.79428,56.2859 l -27.3985,18.3582 c -9.4701,5.9942 -18.8666,11.1891 -28.5424,16.2869 a 612.85048,612.85048 0 0 1 -62.099,23.1613 c 5.2413,-2.3638 10.482,-4.7193 15.6426,-7.4469 3.0962,-1.6363 6.3451,-2.5923 9.7891,-4.6126 l 19.0983,-10.3149 c 19.1752,-9.9332 36.9665,-21.166 55.1909,-33.0353 3.0615,-1.9938 5.9627,-3.9853 8.962,-6.0951 10.9971,-7.7362 15.3379,-9.8547 25.3697,-19.0994 6.3231,-5.827 13.5013,-11.5105 18.6379,-18.3103 1.1125,-1.4728 2.1158,-2.2578 3.6831,-3.8225 9.7217,-9.7052 24.82908,-29.4697 32.78508,-40.4713 3.5016,-4.8421 8.4214,-11.9906 11.8538,-17.568 15.9784,-25.9624 27.6768,-51.2557 37.6665,-80.67057 6.902,-20.323 13.3828,-52.4284 14.7447,-73.5786 0.5945,-9.2354 1.0061,-18.4686 1.7251,-27.5802 0.7524,-9.5331 -0.6208,-19.9679 -0.6204,-28.7492 0,-13.0485 -1.547,-17.0819 -1.6783,-27.54 -0.1957,-15.6105 -9.8177,-76.96818 -13.8696,-90.18648 -1.7234,-5.62197 -6.8861,-29.52632 -8.1729,-35.61488 l -6.0831,-23.43342 c -7.2524,-24.15821 -15.2184,-56.48837 -23.8306,-79.93919 l -16.9247,-49.57697 c -2.5533,-9.04524 -6.3883,-17.52125 -9.5269,-26.81292 -4.7565,-14.0813 -10.59818,-28.82656 -16.30648,-42.47837 l -8.273,-21.17389 c -2.6722,-7.05202 -6.1269,-14.11085 -8.8651,-21.11946 -8.1861,-20.95198 -17.7388,-41.1475 -26.6725,-61.67897 -2.9451,-6.76865 -6.4611,-13.42999 -9.0468,-20.28139 -2.4883,-6.59345 -6.5443,-13.56953 -9.4126,-20.02126 -13.0436,-29.33853 -29.623,-59.83801 -44.9404,-88.44074 -1.8957,-3.54013 -3.5613,-6.07715 -5.134,-9.25473 -6.2235,-12.57451 -14.0056,-25.75521 -21.3926,-37.48803 -11.4043,-18.11288 -21.6529,-36.51859 -34.2762,-53.99263 -8.5075,-11.77679 -16.3823,-23.52965 -24.64697,-34.20539 -3.92102,-5.06481 -18.12431,-23.14516 -23.56399,-28.42703 -1.34541,-1.30634 -2.17651,-2.10426 -3.31968,-3.53732 -7.73868,-9.70142 -19.63216,-20.75787 -29.8724,-28.97886 -1.7954,-1.44159 -1.81479,-2.14338 -3.95851,-3.56998 -4.38952,-2.9209 -7.98204,-6.40501 -12.48295,-9.44411 -1.17639,-0.79432 -4.51067,-2.80739 -7.60254,-4.70627 z m -162.065,3.65922 c -27.93735,13.79362 -66.18661,43.40873 -85.08084,62.31787 l -23.70548,23.87422 c -4.25918,4.30615 -8.75825,8.87341 -12.63754,13.66605 l -14.4214,16.88882 c -13.15401,14.90321 -25.24688,31.06484 -36.80232,47.11173 -7.95256,11.04376 -18.39949,25.69905 -25.50902,37.02762 -7.91834,12.61701 -16.93031,25.45823 -24.44781,38.79959 -4.79443,8.50848 -15.53972,24.89256 -19.76657,32.88841 l -11.15182,20.13554 c -2.73382,4.69473 -4.7183,8.46865 -7.44254,13.22089 -2.65648,4.63355 -4.42541,9.12711 -7.37936,13.91312 -4.3884,7.11031 -30.43273,58.67938 -35.1001,69.39034 l -13.28836,28.72852 c -2.21942,4.64084 -4.365,9.79674 -6.70351,14.5248 -9.06435,18.32548 -31.59217,71.64138 -37.87332,88.0413 -1.87442,4.89395 -3.95546,9.61981 -5.90678,14.75445 -1.87046,4.92154 -4.28024,10.18573 -6.1419,15.07444 l -28.67623,75.9665 c -4.12743,11.57489 -23.45532,63.86384 -24.92567,69.60696 -2.10389,8.21798 -5.35102,15.48009 -8.06183,23.13192 -7.57206,21.3744 -14.20357,39.93148 -23.50198,60.45878 -2.18291,4.8188 -4.45856,9.4439 -7.74185,13.5257 -2.99691,3.7257 -5.92155,9.2224 -12.30441,5.6826 -2.4713,-1.3706 -5.11897,-4.4873 -7.75712,-8.4537 A 612.85048,612.85048 0 0 1 37.14977,649.99946 612.85048,612.85048 0 0 1 553.18559,45.47499 Z m 195.07745,0.31456 a 612.85048,612.85048 0 0 1 514.58716,604.20991 612.85048,612.85048 0 0 1 -32.1254,192.2334 c -2.6889,3.519 -6.1162,7.0809 -10.5804,4.8892 -7.2767,-3.5726 -14.2801,-20.6886 -18.0034,-29.6417 -8.3431,-20.06158 -15.0983,-40.84438 -22.5072,-61.31106 l -9.3407,-26.9871 c -3.7548,-12.099 -7.9839,-23.60529 -12.2554,-35.28944 -2.2097,-6.04342 -4.2122,-11.17554 -6.2573,-17.66377 -1.7889,-5.67518 -4.9829,-11.79875 -6.7405,-17.57887 -1.7552,-5.77204 -4.2701,-11.68687 -6.3553,-17.39493 -1.1035,-3.02093 -2.0163,-5.87823 -3.1814,-8.77801 -1.1592,-2.88501 -2.4278,-5.7215 -3.3294,-8.5538 -2.054,-6.45307 -13.3112,-35.13171 -16.6972,-43.43072 l -17.3635,-42.03975 c -4.884,-11.98794 -9.3136,-22.24818 -14.3397,-33.87233 -8.0169,-18.54031 -21.2073,-48.28551 -30.0161,-65.79098 -6.7148,-13.3441 -12.9226,-27.81443 -19.9342,-40.80767 -1.5465,-2.86607 -2.6866,-4.55593 -4.0075,-7.94211 -1.0282,-2.6358 -2.5936,-5.00392 -4.1164,-7.75708 -1.5028,-2.717 -2.7228,-5.06728 -4.063,-7.81477 -6.4908,-13.30776 -13.7068,-26.08879 -21.0008,-39.05533 l -17.34488,-30.28382 c -5.6712,-10.38441 -12.6509,-19.77944 -18.2156,-30.03244 -2.903,-5.34901 -5.9761,-9.36631 -9.1154,-14.61296 -7.3493,-12.28317 -15.9268,-23.71456 -23.8873,-35.60725 -3.1088,-4.64464 -6.6694,-9.42616 -10.0754,-14.32998 -7.8832,-11.34992 -31.7022,-42.74947 -42.0299,-53.79346 -3.5923,-3.84139 -13.4412,-14.60048 -16.8148,-18.88278 -2.3035,-2.92391 -3.0855,-3.86881 -5.5357,-6.33671 l -24.0853,-24.13871 c -1.7603,-1.69436 -4.2942,-3.45178 -6.5087,-5.38544 -2.1606,-1.88662 -4.4908,-4.41938 -6.0744,-5.79795 -4.3698,-3.80428 -8.4414,-6.96302 -12.9075,-10.88951 -14.18899,-12.47515 -40.24245,-30.14475 -57.41891,-38.38814 -0.63344,-0.30401 -1.59071,-0.7906 -2.35857,-1.14391 z"
       inkscape:export-filename="C:\Users\thomas\OneDrive\SKV Lorsch Shared\2021 NBC\Logo\NBC Logo Kreis.jpg"
       inkscape:export-xdpi="96"
       inkscape:export-ydpi="96" />
  </g>
</svg>
